<?xml version="1.0" standalone="no"?>
<!DOCTYPE svg PUBLIC "-//W3C//DTD SVG 20010904//EN"
 "http://www.w3.org/TR/2001/REC-SVG-20010904/DTD/svg10.dtd">
<svg version="1.0" xmlns="http://www.w3.org/2000/svg"
 width="1024.000000pt" height="1024.000000pt" viewBox="0 0 1024.000000 1024.000000"
 preserveAspectRatio="xMidYMid meet">
<metadata>
Created by potrace 1.11, written by Peter Selinger 2001-2013
</metadata>
<g transform="translate(0.000000,1024.000000) scale(0.100000,-0.100000)"
fill="#000000" stroke="none">
<path d="M0 5120 l0 -5120 5120 0 5120 0 0 5120 0 5120 -5120 0 -5120 0 0
-5120z m1653 3359 c1152 -90 2092 -307 2792 -643 167 -81 326 -171 368 -210
15 -14 37 -45 47 -68 19 -42 20 -98 20 -2834 0 -3106 6 -2850 -68 -2915 -103
-91 -185 -91 -378 -2 -766 356 -1761 568 -3084 658 -118 8 -233 20 -255 26
-144 41 -264 164 -311 318 -12 39 -14 453 -14 2671 0 2874 -4 2685 57 2789 54
93 168 187 256 213 108 30 150 30 570 -3z m7494 5 c95 -27 205 -115 260 -206
68 -112 63 101 63 -2799 0 -2510 -1 -2628 -18 -2681 -50 -150 -166 -267 -307
-307 -22 -6 -137 -18 -255 -26 -1330 -91 -2308 -300 -3095 -662 -159 -73 -212
-84 -279 -59 -55 21 -131 100 -145 152 -8 28 -11 865 -11 2829 l0 2790 24 51
c26 56 48 74 191 157 101 58 336 171 480 230 651 267 1585 458 2595 531 118 9
231 18 250 20 59 6 192 -4 247 -20z"/>
</g>
</svg>
